<svg id="Layer_1" data-name="Layer 1" xmlns="http://www.w3.org/2000/svg" viewBox="0 0 97.86 97.86"><defs><style>.cls-1{fill:#e0380c;}.cls-2,.cls-3{fill:none;stroke:#fff;stroke-linecap:round;stroke-linejoin:round;}.cls-2{stroke-width:2.36px;}.cls-3{stroke-width:2.52px;}</style></defs><title>ftp</title><circle class="cls-1" cx="48.93" cy="48.93" r="48.93"/><path class="cls-2" d="M70.55,51H62.77V39.24c0-.94.12-1.18-0.83-1.18h-6.6c-0.94,0-2,.24-2,1.18V51H47a1.33,1.33,0,0,0-1.41,1.3A1.28,1.28,0,0,0,46,53.39L57.35,65.18a1.85,1.85,0,0,0,2.59,0h0L71.73,53.63a1.54,1.54,0,0,0-.12-2.24A1.9,1.9,0,0,0,70.55,51Z" transform="translate(-9.93 -11.07)"/><path class="cls-3" d="M82.1,78.46V70.77s0.38-3-2.4-3H66.46s-4,5.55-7.56,5.55c0,0-2.27.76-7.82-5.55H38a1.77,1.77,0,0,0-2.27.76,2.15,2.15,0,0,0-.13.88v9.2s0.25,3,2.27,3H79.7A3.25,3.25,0,0,0,82.1,78.46Zm-12.48-.88a1.76,1.76,0,1,1,1.76-1.76h0a2,2,0,0,1-1.76,1.76h0Zm7.19,0a1.76,1.76,0,1,1,1.76-1.76h0a2,2,0,0,1-1.76,1.76h0Z" transform="translate(-9.93 -11.07)"/></svg>