<svg id="Layer_1" data-name="Layer 1" xmlns="http://www.w3.org/2000/svg" viewBox="0 0 288.58 315.18"><defs><style>.cls-1{fill:#e0390c;}</style></defs><title>logo2</title><path class="cls-1" d="M169.83,49.53h-10A15.8,15.8,0,0,0,144,33.74h0v-10a25.82,25.82,0,0,1,25.79,25.79" transform="translate(0 -0.01)"/><path class="cls-1" d="M193.57,49.3h-10c0-20.2-19.12-39.29-39.34-39.29V0c25.82,0,49.34,23.5,49.34,49.29" transform="translate(0 -0.01)"/><path class="cls-1" d="M279.58,303.73a2.14,2.14,0,0,1-2.42,2.31L152.5,272.68c-3.54-.87-3.71-1.47-3.71-2.64V168.3c0-1.36.94-2.06,2.44-2.37l0.45-.09,125.76-24.36c1.34-.14,2.14,1.19,2.14,2.44V303.73h0ZM139.79,158.39c0,1.17-.17,1.77-3.71,2.64L11.42,194.4A2.14,2.14,0,0,1,9,192.08V32.27c0-1.25.79-2.58,2.14-2.44L136.89,54.19l0.45,0.09c1.5,0.31,2.44,1,2.44,2.37V158.39h0Zm137.45-26-0.55.07L150.77,156.85a15.67,15.67,0,0,0-2,.45V56.65c0-6.16-4.79-10.49-11-11.45L11.89,20.81l-0.55-.07A11.43,11.43,0,0,0,0,32.26H0V192.08a11.47,11.47,0,0,0,11.46,11.46H12L138.49,169.7h0.17l1.14-.38V270c0,5.39,3.41,9.18,10.13,11.26h0.17l126.43,33.89h0.59a11.47,11.47,0,0,0,11.46-11.46V143.92a11.43,11.43,0,0,0-11.33-11.53h0" transform="translate(0 -0.01)"/><path class="cls-1" d="M25.34,71.42h7.5l3.3,35.1c0.4,4.5.9,8.9,1.2,18h0.2c0.3-9.1.8-13.5,1.2-18L42,71.42h7.5l-8.6,71.4h-7Z" transform="translate(0 -0.01)"/><rect class="cls-1" x="55.04" y="71.41" width="7.4" height="71.4"/><path class="cls-1" d="M77.24,103.42h7.4V78.82h-7.4v24.6Zm-7.4-21.5a11.1,11.1,0,0,1,22.2,0h0v60.9h-7.4v-32h-7.4v32h-7.4V81.92Z" transform="translate(0 -0.01)"/><path class="cls-1" d="M106.83,103.42h7.4V78.82h-7.4v24.6Zm-7.4-21.5a11.1,11.1,0,0,1,22.2,0h0v60.9h-7.4v-32h-7.4v32h-7.4V81.92h0Z" transform="translate(0 -0.01)"/></svg>