<svg id="Layer_1" data-name="Layer 1" xmlns="http://www.w3.org/2000/svg" viewBox="0 0 288.58 315.19"><defs><style>.cls-1{fill:#fff;}</style></defs><title>logo</title><path class="cls-1" d="M215.83,91.34h-10A15.8,15.8,0,0,0,190,75.55v-10a25.82,25.82,0,0,1,25.79,25.79" transform="translate(-46 -41.81)"/><path class="cls-1" d="M239.57,91.11h-10c0-20.2-19.12-39.29-39.34-39.29v-10c25.82,0,49.34,23.5,49.34,49.29" transform="translate(-46 -41.81)"/><path class="cls-1" d="M325.58,345.54a2.14,2.14,0,0,1-2.42,2.31L198.5,314.49c-3.54-.87-3.71-1.47-3.71-2.64V210.11c0-1.36.94-2.06,2.44-2.37l0.45-.09,125.76-24.36c1.34-.14,2.14,1.19,2.14,2.44V345.54ZM185.79,200.2c0,1.17-.17,1.77-3.71,2.64L57.42,236.21A2.14,2.14,0,0,1,55,233.89V74.08c0-1.25.79-2.58,2.14-2.44L182.89,96l0.45,0.09c1.5,0.31,2.44,1,2.44,2.37V200.2Zm137.45-26-0.55.07L196.77,198.66a15.67,15.67,0,0,0-2,.45V98.46c0-6.16-4.79-10.49-11-11.45L57.89,62.62l-0.55-.07A11.43,11.43,0,0,0,46,74.08V233.89a11.47,11.47,0,0,0,11.46,11.46h0.59l126.44-33.84,0.17,0,1.14-.38V311.85c0,5.39,3.41,9.18,10.13,11.26l0.17,0L322.53,357h0.59a11.47,11.47,0,0,0,11.46-11.46V185.73a11.43,11.43,0,0,0-11.34-11.53" transform="translate(-46 -41.81)"/><path class="cls-1" d="M71.34,113.23h7.5l3.3,35.1c0.4,4.5.9,8.9,1.2,18h0.2c0.3-9.1.8-13.5,1.2-18l3.3-35.1h7.5l-8.6,71.4h-7Z" transform="translate(-46 -41.81)"/><rect class="cls-1" x="55.04" y="71.42" width="7.4" height="71.4"/><path class="cls-1" d="M123.24,145.23h7.4v-24.6h-7.4v24.6Zm-7.4-21.5a11.1,11.1,0,1,1,22.2,0v60.9h-7.4v-32h-7.4v32h-7.4v-60.9Z" transform="translate(-46 -41.81)"/><path class="cls-1" d="M152.83,145.23h7.4v-24.6h-7.4v24.6Zm-7.4-21.5a11.1,11.1,0,1,1,22.2,0v60.9h-7.4v-32h-7.4v32h-7.4v-60.9Z" transform="translate(-46 -41.81)"/></svg>