<?xml version="1.0" encoding="utf-8"?>
<!-- Generator: Adobe Illustrator 19.2.1, SVG Export Plug-In . SVG Version: 6.00 Build 0)  -->
<svg version="1.1" id="Layer_1" xmlns="http://www.w3.org/2000/svg" xmlns:xlink="http://www.w3.org/1999/xlink" x="0px" y="0px"
	 viewBox="0 0 154.9 154.9" style="enable-background:new 0 0 154.9 154.9;" xml:space="preserve">
<style type="text/css">
	.st0{fill:#8D6E36;}
	.st1{fill:none;stroke:#FFFFFF;stroke-width:2.5959;stroke-miterlimit:10;}
	.st2{fill:none;stroke:#FFFFFF;stroke-width:2.5959;stroke-linecap:round;stroke-linejoin:round;stroke-miterlimit:10;}
</style>
<title>ams</title>
<circle class="st0" cx="77.4" cy="77.4" r="77.4"/>
<path class="st0" d="M49.7,68.9"/>
<path class="st1" d="M47.9,104.1v-56c0-4.7,0-5.8,0-5.8h61.7c-0.2,2.9,0,4.6,0,4.6v57.2c0.1,7.8,0,8.4,0,8.4H39.1c0-2.9,0-6.1,0-6.1
	l0-53.1c6.4,0.1,8.2,0.1,8.2,0.1"/>
<rect x="57.1" y="50.3" class="st2" width="18.5" height="18.5"/>
<line class="st2" x1="82.1" y1="54.8" x2="102.2" y2="54.8"/>
<line class="st2" x1="82.1" y1="61.3" x2="102.2" y2="61.3"/>
<line class="st2" x1="81.9" y1="68.5" x2="102" y2="68.5"/>
<line class="st2" x1="56.3" y1="90.2" x2="76.4" y2="90.2"/>
<line class="st2" x1="55.8" y1="97.5" x2="75.9" y2="97.5"/>
<line class="st2" x1="55.8" y1="104.1" x2="75.9" y2="104.1"/>
<line class="st2" x1="81.9" y1="90.2" x2="102" y2="90.2"/>
<line class="st2" x1="81.9" y1="97.5" x2="102" y2="97.5"/>
<line class="st2" x1="81.9" y1="104.1" x2="102" y2="104.1"/>
<line class="st2" x1="55.8" y1="75.8" x2="102" y2="75.8"/>
<line class="st2" x1="55.8" y1="83" x2="102" y2="83"/>
</svg>
